<?xml version="1.0" encoding="UTF-8"?><svg id="Layer_1" xmlns="http://www.w3.org/2000/svg" viewBox="0 0 1000 1000"><defs><style>.cls-1{fill:#fbb03b;}.cls-1,.cls-2,.cls-3,.cls-4,.cls-5,.cls-6,.cls-7,.cls-8,.cls-9{stroke:#000;stroke-width:5px;}.cls-1,.cls-2,.cls-3,.cls-4,.cls-5,.cls-6,.cls-8,.cls-9{stroke-miterlimit:10;}.cls-2{fill:#fcee21;}.cls-3,.cls-10{fill:#fff;}.cls-4{fill:#f6d2a2;}.cls-5{fill:#69d7e2;}.cls-6{fill:#22b573;}.cls-7{stroke-linejoin:bevel;}.cls-8{fill:none;}.cls-11{opacity:.2;}.cls-12,.cls-10{stroke-width:0px;}</style></defs><path class="cls-5" d="m723.75,323.96c81.93-28.92,17.34-140.94-54.04-91.37-46.82-40.16-111.31-47.51-179.01-47.51-66.32,5.28-129.44,17.45-173.5,56-71.15-45.9-136.79,64.26-53.25,92.03-23.41,90.88,3.21,183.6-.46,276.09-3.44,83.08-25.25,194.39,20.89,268.98,39.25,63.8,123.7,86.53,193.25,89.05,88.82,3.21,196.46-18.59,239.6-104.66,41.31-81.93,29.84-184.06,24.56-272.42-5.28-89.28,4.59-179.93-18.59-266l.56-.2Z"/><path class="cls-3" d="m525.5,421.77c.23,11.7,4.53,25.06.46,36.95-2.19,6.41-8.75,8.22-14.46,8.95-7.37.94-13.54-5.97-16.52-12.85-1.84-14,.46-27.31,1.15-41.31,0-.46,8.72.23,16.52,2.53,6.65,2.06,12.85,5.51,12.85,5.74h0Zm-64.95.92c-6.43,24.33,8.49,64.03,33.05,31.44-1.84-13.77.23-27.08.92-40.62.23-1.15-33.74,7.57-33.97,9.18h0Z"/><path class="cls-3" d="m322.39,321.78c21.11,82.16,152.62,61.05,147.57-21.34-5.97-98.69-167.77-79.64-147.58,21.34"/><ellipse class="cls-12" cx="396.78" cy="281.35" rx="22.26" ry="24.1"/><ellipse class="cls-10" cx="396.78" cy="269.2" rx="5.28" ry="6.2"/><path class="cls-3" d="m506.82,306.42c-10.23-87.02,128.3-111.08,148.26-25.71,22.26,95.02-137.09,120.78-148.26,25.71Z"/><ellipse class="cls-12" cx="582.81" cy="275.4" rx="21.8" ry="24.1"/><ellipse class="cls-10" cx="582.82" cy="263.25" rx="5.05" ry="6.2"/><path class="cls-4" d="m465.28,373.1c-18.13,1.61-32.82,22.95-23.41,39.93,12.39,22.49,40.16-2.06,57.37.23,19.97.46,36.26,21.11,52.1,3.67,17.67-19.28-7.57-38.1-27.54-46.36l-58.52,2.53h0Z"/><path class="cls-12" d="m528.4,363.24c-7.11-26.16-66.79-22.26-65.41,8.95,2.98,23.18,72.3,16.98,65.41-8.95Z"/><path class="cls-4" d="m685.09,905.96c18.13,11.25,51.41,45.21,24.1,61.74-26.16,23.87-40.85-26.39-63.8-33.28,9.87-13.54,22.26-25.93,39.71-28.46Z"/><path class="cls-8" d="m709.19,967.69c-2.67-10.12-8.18-20.23-12.02-24.47"/><path class="cls-4" d="m360.57,944.28c-21.34,3.21-33.28,22.49-51.18,32.36-16.75,9.87-23.18-3.21-24.56-5.97-2.52-1.15-2.29,1.15-6.43-2.98-15.61-24.56,16.07-42.46,32.59-54.62,22.95-4.59,37.41,15.38,49.57,31.21h0Z"/><path class="cls-8" d="m283.68,972.29c2.16-9.39,10.78-20.41,12.55-25.38"/><path class="cls-4" d="m792,589.04c-1.66-24.57-24.79-12.62-35.34-5.28-10.1,7.11-13.08,1.15-14,14.92-.69,9.18-1.61,18.13-1.15,27.31,15.37,1.38,31.9-2.29,44.52-11.47,6.43-4.59,18.59-19.74,5.97-25.48Z"/><path class="cls-8" d="m792,589.04c-5.42,1.09-7.6,2.92-9.59,5.08"/><path class="cls-4" d="m214.8,567.89c1.15-23.64,24.79-12.62,35.34-5.28,5.49,3.87,10.63,5.05,12.73,6.46,1.76,1.18.85,2.17,1.27,8.46.69,9.18,1.61,18.13,1.15,27.31-15.38,1.38-31.9-2.29-44.53-11.47-6.65-4.59-18.59-19.74-5.97-25.48h0Z"/><path class="cls-8" d="m224.35,573.01c-2.51-3.59-6.8-4.88-9.55-5.11"/><path class="cls-8" d="m723.19,324.16c-8.7-34.43-21.75-64.55-53.47-91.57"/><path class="cls-7" d="m709.47,284.24c8.67-5.65,8.73-13.76,5.27-21.11-3.05-6.47-8.95-10.46-21.95-6.6,0,0,12.79,12.65,16.68,27.71Z"/><path class="cls-8" d="m263.95,333.11c9.82-35.57,24.48-68.42,53.25-92.03"/><path class="cls-9" d="m289.81,271.94c-13.31-6.95-23.67-5.68-28.36,2.24-6.84,11.55,1.96,22.29,13.2,27.08,3.22-10.66,8.37-19.73,15.16-29.32Z"/><circle class="cls-2" cx="258.28" cy="374.1" r="59.64"/><path class="cls-8" d="m282.63,354.87c-3.87-13.73-37.64-18.93-48.23,0-6.42,11.48-10.47,48.44,20.61,50.7,20.54,1.49,28.33-15.14,27.63-25.35-.19-2.77-.2-6.6-3.25-6.6-8.74,0-23.09-.58-23.09-.58"/><circle class="cls-1" cx="766.17" cy="292.91" r="59.64"/><path class="cls-8" d="m793.41,272.27c-4.01-14.23-39-19.61-49.97,0-6.65,11.89-6.06,34.63,2.28,43.66,16.59,17.95,39.57,9.78,47.7-2.9"/><circle class="cls-6" cx="430.56" cy="115.6" r="59.64"/><path class="cls-8" d="m451.46,86.2s-33.41-.59-34.78-.39-5.67,1.76-5.87,4.89-2.15,47.12-2.35,49.85,2.54,4.89,4.5,4.89,39.69-.78,39.69-.78"/><line class="cls-8" x1="410.04" y1="112.98" x2="440.54" y2="112.59"/><g class="cls-11"><path class="cls-12" d="m213.86,429.03c-5.34,13.37-6.2,29.38-8,43.57-2.66,24.74-2.75,49.85-.57,74.64,0,0-.49.08-.49.08-.93-4.93-1.59-9.91-2.12-14.9-1.64-14.98-2.26-30.03-2.14-45.12.04-15.09.79-30.55,5.86-44.97,1.68-4.8,3.85-9.57,7.03-13.56,0,0,.43.26.43.26h0Z"/></g><g class="cls-11"><path class="cls-12" d="m242.91,442.2c-2.43,10.17-3.3,20.31-4.46,30.59-.71,5.74-1.62,12.73-2.09,18.5-1.18,16.55-1.72,33.24-.28,49.8,0,0-.49.08-.49.08-3.68-20.65-3.65-41.76-2.82-62.66.48-9.45,2.25-19,5.44-27.92.7-1.64,1.7-4.31,2.63-5.83.52-.94,1.06-1.85,1.61-2.75l.45.21h0Z"/></g><g class="cls-11"><path class="cls-12" d="m809.08,358.58c3.39,4.31,5.79,9.51,7.58,14.69,7.48,22.77,6.69,47.26,4.9,70.79-1.71,21.77-4.66,43.43-9.47,64.72-1.62,7.09-3.42,14.15-5.92,20.98,0,0-.47-.16-.47-.16,4.11-13.87,6.24-28.26,8.14-42.58,4.27-32.15,5.22-64.77,2.39-97.07-.26-2.64-.96-8.01-1.39-10.63-1.23-7.03-2.95-13.98-6.18-20.47,0,0,.42-.28.42-.28h0Z"/></g><g class="cls-11"><path class="cls-12" d="m779.19,363.89c1.27,2.35,2.59,5.01,3.77,7.43.27.59,1.89,4.83,2.18,5.55,1.45,3.66,2.47,7.62,3.59,11.38.8,3.55,1.9,8.08,2.47,11.66,2.24,12.54,2.42,25.3,2.22,37.93-.45,18.95-2.45,37.9-7.06,56.3-.59,2.69-1.8,6.46-2.55,9.11-.81,2.8-2.2,6.17-3.13,8.92,0,0-.47-.17-.47-.17,7.46-23.93,9.5-49.22,9.22-74.15-.32-12.26-1.64-25.06-3.16-37.19-1.55-12.33-3.82-24.52-7.52-36.57l.46-.2h0Z"/></g><g class="cls-11"><path class="cls-12" d="m498.58,86.32c23.1-3.23,46.68-3.93,69.85-.76,13.87,1.82,27.68,5.39,40.96,9.8,35.61,11.71,67.25,33.23,93.79,59.35,0,0-.34.36-.34.36-30.72-27.92-67.31-50.18-107.98-59.51-21.28-4.94-43.16-7.14-64.96-8.23-5.34-.07-12.01-.4-17.34-.41-4.63,0-9.27,0-13.93-.12,0,0-.04-.5-.04-.5h0Z"/></g><g class="cls-11"><path class="cls-12" d="m506.52,124.15c24.87-1.29,50.15,1.07,74.16,7.82,40.01,11.26,77.41,31.91,107.54,60.57,0,0-.34.37-.34.37-12.55-10.74-25.95-20.45-40.19-28.68-14.19-8.31-29.18-15.2-44.67-20.58-19.34-6.69-39.58-10.78-59.72-14.24-7.1-1.17-17.22-2.49-24.45-3.37-4.1-.45-8.21-.85-12.33-1.39,0,0,.01-.5.01-.5h0Z"/></g><g class="cls-11"><path class="cls-12" d="m200.64,589.83c3.51,9.25,9.27,17.99,16.99,24.24,7.63,6.43,17.39,10.3,27.4,10.43,0,0,0,.4,0,.4-15.83,4.19-32.67-6.19-40.11-20.01-2.57-4.62-4.3-9.7-4.65-14.93l.38-.13h0Z"/></g><g class="cls-11"><path class="cls-12" d="m804.73,581.58c12.28,10.86,9.92,32.28-1.56,42.97-3.83,3.7-8.7,6.28-13.77,6.99,0,0-.16-.37-.16-.37,4.41-2.05,8.38-5.02,11.53-8.7,6.3-7.38,9.3-17.41,8.33-27.04-.51-4.81-2.03-9.55-4.7-13.62,0,0,.33-.23.33-.23h0Z"/></g></svg>